#N canvas 1143 237 611 634 10;
#X floatatom 67 117 5 0 0 0 - - -;
#X obj 67 90 unsig~;
#X obj -28 79 *~ 5;
#X floatatom -7 169 5 0 0 0 - - -;
#X obj -7 142 unsig~;
#X obj -27 104 +~ 1000;
#X obj -26 210 osc~;
#X obj -25 290 *~;
#X obj -26 377 hip~ 500;
#X obj -27 406 *~ 0.01;
#X floatatom 84 186 5 0 0 0 - - -;
#X obj 84 159 unsig~;
#X obj 133 105 +~ 1000;
#X obj 132 191 osc~;
#X obj 12 201 *~;
#X obj 12 228 *~;
#X obj 13 259 *~;
#X obj -70 270 *~ 0.5;
#X obj -28 50 bp~ 2000 3;
#X obj -27 458 lop~ 20000;
#X obj -28 432 lop~ 20000;
#X obj -25 350 hip~ 90;
#X obj 203 133 *~;
#X obj 202 186 *~ 0.5;
#X obj 202 212 *~ 1;
#X obj 132 76 *~ 1900;
#X obj -25 317 *~;
#X obj 203 160 bp~ 100 20;
#X obj 66 65 *~ 9000;
#X obj 65 41 lop~ 500;
#X obj 133 46 bp~ 2000 3;
#X obj -28 546 freeverb~;
#X obj -27 582 dac~;
#X msg 55 422 wet \$1;
#X msg 125 422 dry \$1;
#X msg 194 498 roomsize \$1;
#X obj 58 395 hsl 50 20 0 1 0 0 empty empty empty -2 -8 0 10 -258113
-1 -1 4900 1;
#X obj 128 394 hsl 50 20 0 1 0 0 empty empty empty -2 -8 0 10 -260097
-1 -1 1960 1;
#X obj 197 467 hsl 50 20 0 1 0 0 empty empty empty -2 -8 0 10 -257985
-1 -1 1176 1;
#X obj 194 364 count 100;
#X obj 193 300 tgl 15 0 empty empty empty 17 7 0 10 -262144 -1 -1 1
1;
#X floatatom 194 390 5 0 0 0 - - -;
#X obj 194 344 bng 15 250 50 0 empty empty empty 17 7 0 10 -262144
-1 -1;
#X floatatom 194 440 5 0 0 0 - - -;
#X obj 194 414 / 100;
#X obj 193 323 metro 700;
#X obj -107 397 phasor~ 0.5;
#X obj -121 372 osc~ 50;
#X obj -122 421 *~;
#X obj 134 17 noise~;
#X obj -29 12 noise~;
#X obj -121 451 lop~ 300;
#X msg 125 370 0.4;
#X msg 55 369 1;
#X obj 55 342 loadbang;
#X obj 125 343 loadbang;
#X obj 193 275 loadbang;
#X connect 1 0 0 0;
#X connect 2 0 5 0;
#X connect 4 0 3 0;
#X connect 5 0 4 0;
#X connect 5 0 6 0;
#X connect 6 0 7 0;
#X connect 7 0 26 0;
#X connect 8 0 9 0;
#X connect 9 0 20 0;
#X connect 11 0 10 0;
#X connect 12 0 11 0;
#X connect 12 0 13 0;
#X connect 13 0 7 1;
#X connect 14 0 15 0;
#X connect 14 0 15 1;
#X connect 15 0 16 0;
#X connect 15 0 16 1;
#X connect 16 0 7 1;
#X connect 17 0 26 0;
#X connect 18 0 2 0;
#X connect 18 0 14 0;
#X connect 18 0 14 1;
#X connect 19 0 31 0;
#X connect 19 0 31 1;
#X connect 20 0 19 0;
#X connect 21 0 8 0;
#X connect 22 0 27 0;
#X connect 23 0 24 0;
#X connect 24 0 26 1;
#X connect 25 0 12 0;
#X connect 26 0 21 0;
#X connect 27 0 23 0;
#X connect 28 0 1 0;
#X connect 28 0 22 0;
#X connect 29 0 28 0;
#X connect 30 0 25 0;
#X connect 31 0 32 0;
#X connect 31 1 32 1;
#X connect 33 0 31 0;
#X connect 34 0 31 0;
#X connect 35 0 31 0;
#X connect 36 0 33 0;
#X connect 37 0 34 0;
#X connect 38 0 35 0;
#X connect 39 0 41 0;
#X connect 40 0 45 0;
#X connect 41 0 44 0;
#X connect 42 0 39 0;
#X connect 43 0 38 0;
#X connect 44 0 43 0;
#X connect 45 0 42 0;
#X connect 46 0 48 1;
#X connect 47 0 48 0;
#X connect 48 0 19 0;
#X connect 48 0 51 0;
#X connect 49 0 22 1;
#X connect 49 0 30 0;
#X connect 50 0 17 0;
#X connect 50 0 18 0;
#X connect 50 0 29 0;
#X connect 51 0 31 0;
#X connect 52 0 37 0;
#X connect 53 0 36 0;
#X connect 54 0 53 0;
#X connect 55 0 52 0;
#X connect 56 0 40 0;
