#N canvas 31 126 748 764 10;
#X text 165 138 bp~ frequence resonance;
#X obj 90 166 *~ 10;
#X text 174 192 convert signal to float <float> metro time;
#X obj 89 196 unsig~ 300;
#X floatatom 44 227 5 0 0 0 - - -;
#X obj 89 279 i;
#X obj 89 227 * 100;
#X floatatom 89 252 5 0 0 0 - - -;
#X floatatom 89 310 5 0 0 0 - - -;
#X obj 89 344 >;
#X text -89 280 make the number into integer;
#X floatatom 136 311 5 0 0 0 - - -;
#X floatatom 89 378 5 0 0 0 - - -;
#X text 171 308 if number bigger than right box \, the end is one;
#X text 129 378 bang;
#X obj 95 587 gemwin;
#X obj 340 721 cube;
#X msg 95 544 create \, 1;
#X obj 340 600 gemhead;
#X obj 340 670 translateXYZ;
#X msg 269 640 draw line;
#X msg 269 674 draw fill;
#X msg 427 602 1 1 1;
#X obj 340 639 color 0.9 0.2 0;
#X floatatom 427 488 5 0 0 0 - - -;
#X obj 90 138 bp~ 300 70;
#X obj 427 570 spigot;
#X msg 483 604 0.9 0.2 0;
#X obj 427 515 == 1;
#X obj 483 515 == 0;
#X floatatom 427 543 5 0 0 0 - - -;
#X obj 483 573 spigot;
#X floatatom 483 546 5 0 0 0 - - -;
#X obj 89 416 s f300;
#X obj 427 462 r f300;
#X obj 402 166 *~ 10;
#X obj 401 196 unsig~ 300;
#X floatatom 356 227 5 0 0 0 - - -;
#X obj 401 279 i;
#X obj 401 227 * 100;
#X floatatom 401 252 5 0 0 0 - - -;
#X floatatom 401 310 5 0 0 0 - - -;
#X obj 401 344 >;
#X floatatom 448 311 5 0 0 0 - - -;
#X floatatom 401 378 5 0 0 0 - - -;
#X obj 401 416 s f800;
#X obj 269 493 r f800;
#X floatatom 269 523 5 0 0 0 - - -;
#X obj 269 605 spigot;
#X obj 269 550 == 1;
#X obj 215 549 == 0;
#X floatatom 269 578 5 0 0 0 - - -;
#X obj 215 607 spigot;
#X floatatom 215 580 5 0 0 0 - - -;
#X obj 306 -49 osc~ 50;
#X obj 307 2 *~;
#X obj 292 -79 osc~ 900;
#X obj 292 78 *~ 0.3;
#X obj 287 115 dac~;
#X obj 293 45 *~;
#X obj 199 -50 osc~ 50;
#X obj 200 9 *~;
#X obj 215 -21 phasor~ 0.5;
#X msg 136 283 - 2;
#X obj 402 138 bp~ 800 100;
#X text 2 654 interactive with visual example;
#X obj 136 258 loadbang;
#X obj 95 511 loadbang;
#X obj 322 -20 phasor~ 0.5;
#X msg 109 567 0 \, destroy;
#X connect 1 0 3 0;
#X connect 3 0 4 0;
#X connect 3 0 6 0;
#X connect 5 0 8 0;
#X connect 6 0 7 0;
#X connect 7 0 5 0;
#X connect 8 0 9 0;
#X connect 9 0 12 0;
#X connect 11 0 9 1;
#X connect 12 0 33 0;
#X connect 17 0 15 0;
#X connect 18 0 23 0;
#X connect 19 0 16 0;
#X connect 20 0 16 0;
#X connect 21 0 16 0;
#X connect 22 0 23 1;
#X connect 23 0 19 0;
#X connect 24 0 28 0;
#X connect 24 0 29 0;
#X connect 25 0 1 0;
#X connect 26 0 22 0;
#X connect 27 0 23 1;
#X connect 28 0 30 0;
#X connect 29 0 32 0;
#X connect 30 0 26 0;
#X connect 30 0 26 1;
#X connect 31 0 27 0;
#X connect 32 0 31 0;
#X connect 32 0 31 1;
#X connect 34 0 24 0;
#X connect 35 0 36 0;
#X connect 36 0 37 0;
#X connect 36 0 39 0;
#X connect 38 0 41 0;
#X connect 39 0 40 0;
#X connect 40 0 38 0;
#X connect 41 0 42 0;
#X connect 42 0 44 0;
#X connect 43 0 42 1;
#X connect 44 0 45 0;
#X connect 46 0 47 0;
#X connect 47 0 49 0;
#X connect 47 0 50 0;
#X connect 48 0 20 0;
#X connect 49 0 51 0;
#X connect 50 0 53 0;
#X connect 51 0 48 0;
#X connect 51 0 48 1;
#X connect 52 0 21 0;
#X connect 53 0 52 0;
#X connect 53 0 52 1;
#X connect 54 0 55 0;
#X connect 55 0 59 1;
#X connect 56 0 59 0;
#X connect 57 0 58 0;
#X connect 57 0 58 1;
#X connect 57 0 25 0;
#X connect 57 0 64 0;
#X connect 59 0 57 0;
#X connect 60 0 61 0;
#X connect 61 0 57 0;
#X connect 62 0 61 1;
#X connect 63 0 11 0;
#X connect 64 0 35 0;
#X connect 66 0 63 0;
#X connect 67 0 17 0;
#X connect 68 0 55 1;
#X connect 69 0 15 0;
